<svg xmlns="http://www.w3.org/2000/svg" viewBox="0 0 500 500"><g id="freepik--background-complete--inject-20"><rect x="416.78" y="398.49" width="33.12" height="0.25" style="fill:#ebebeb"></rect><rect x="322.53" y="401.21" width="8.69" height="0.25" style="fill:#ebebeb"></rect><rect x="396.59" y="389.21" width="19.19" height="0.25" style="fill:#ebebeb"></rect><rect x="52.46" y="390.89" width="43.19" height="0.25" style="fill:#ebebeb"></rect><rect x="104.56" y="390.89" width="6.33" height="0.25" style="fill:#ebebeb"></rect><rect x="131.47" y="395.11" width="93.68" height="0.25" style="fill:#ebebeb"></rect><path d="M237,337.8H43.92a5.71,5.71,0,0,1-5.71-5.71V60.66A5.71,5.71,0,0,1,43.92,55H237a5.71,5.71,0,0,1,5.71,5.71V332.09A5.71,5.71,0,0,1,237,337.8ZM43.92,55.2a5.47,5.47,0,0,0-5.46,5.46V332.09a5.47,5.47,0,0,0,5.46,5.46H237a5.47,5.47,0,0,0,5.46-5.46V60.66A5.47,5.47,0,0,0,237,55.2Z" style="fill:#ebebeb"></path><path d="M453.31,337.8H260.21a5.72,5.72,0,0,1-5.71-5.71V60.66A5.72,5.72,0,0,1,260.21,55h193.1A5.71,5.71,0,0,1,459,60.66V332.09A5.71,5.71,0,0,1,453.31,337.8ZM260.21,55.2a5.47,5.47,0,0,0-5.46,5.46V332.09a5.47,5.47,0,0,0,5.46,5.46h193.1a5.47,5.47,0,0,0,5.46-5.46V60.66a5.47,5.47,0,0,0-5.46-5.46Z" style="fill:#ebebeb"></path><rect y="382.4" width="500" height="0.25" style="fill:#ebebeb"></rect><rect x="270.04" y="88.23" width="44.98" height="58.44" style="fill:#f5f5f5"></rect><rect x="273.5" y="92.73" width="38.06" height="49.45" style="fill:#ebebeb"></rect><rect x="275.88" y="95.82" width="33.3" height="43.26" style="fill:#fafafa"></rect><rect x="329.41" y="111.21" width="30.93" height="40.19" transform="translate(476.18 -213.58) rotate(90)" style="fill:#e6e6e6"></rect><rect x="331.79" y="114.3" width="26.17" height="34.01" transform="translate(476.18 -213.58) rotate(90)" style="fill:#f0f0f0"></rect><rect x="333.43" y="116.43" width="22.9" height="29.75" transform="translate(476.18 -213.58) rotate(90)" style="fill:#ebebeb"></rect><path d="M131.6,114.73c-1,5.23-1.64,15-1.64,26.23s.66,21,1.64,26.23a4.27,4.27,0,0,0-1.45,1c-1.7,1.7-1.09,5.08,0,6.16s4.46,1.71,6.16,0c.37-.36.41-1,.84-1.22,3.65-1.8,10.61,1.41,18.12,1.41s14.47-3.21,18.12-1.41c1.46.73,2.19,2.5,3.93,2.5s2.46-1.77,3.92-2.5c3.65-1.8,10.61,1.41,18.12,1.41s14.47-3.21,18.12-1.41c.43.22.47.86.84,1.22,1.7,1.71,5.07,1.09,6.16,0s1.7-4.46,0-6.16c-.43-.43-1.18-.46-1.45-1-2.56-4.66,1.64-15,1.64-26.23s-4.2-21.57-1.64-26.23c.27-.5,1-.54,1.45-1,1.7-1.71,1.09-5.08,0-6.17s-4.46-1.7-6.16,0c-.37.37-.41,1-.84,1.22-3.65,1.81-10.61-1.4-18.12-1.4s-14.47,3.2-18.12,1.4c-1.46-.72-2.19-2.49-3.92-2.49s-2.47,1.77-3.93,2.49c-3.65,1.8-10.61-1.4-18.12-1.4s-14.47,3.21-18.12,1.4c-.43-.21-.47-.85-.84-1.22-1.7-1.7-5.07-1.09-6.16,0s-1.7,4.46,0,6.17A4.58,4.58,0,0,0,131.6,114.73Z" style="fill:#e0e0e0"></path><path d="M133.59,112.74c-1,5.23-1.64,15-1.64,26.23s.66,21,1.64,26.24a4.27,4.27,0,0,0-1.45,1c-1.7,1.7-1.09,5.07,0,6.16s4.46,1.7,6.16,0c.36-.37.4-1,.84-1.22,3.65-1.81,10.61,1.4,18.12,1.4s14.47-3.2,18.12-1.4c1.46.72,2.18,2.49,3.92,2.49s2.47-1.77,3.93-2.49c3.65-1.8,10.61,1.4,18.11,1.4s14.48-3.21,18.12-1.4c.44.21.48.85.85,1.22,1.7,1.7,5.07,1.09,6.16,0s1.7-4.46,0-6.16c-.43-.43-1.18-.47-1.45-1-2.56-4.67,1.63-15,1.63-26.24s-4.19-21.56-1.63-26.23c.27-.5,1-.53,1.45-1,1.7-1.7,1.09-5.07,0-6.16s-4.46-1.7-6.16,0c-.37.36-.41,1-.85,1.22-3.64,1.8-10.6-1.41-18.12-1.41s-14.46,3.21-18.11,1.41c-1.46-.72-2.19-2.5-3.93-2.5s-2.46,1.78-3.92,2.5c-3.65,1.8-10.61-1.41-18.12-1.41s-14.47,3.21-18.12,1.41c-.44-.22-.48-.86-.84-1.22-1.7-1.7-5.07-1.09-6.16,0s-1.7,4.46,0,6.16A4.27,4.27,0,0,0,133.59,112.74Z" style="fill:#fafafa"></path><rect x="153.05" y="99.85" width="52.5" height="78.25" transform="translate(318.28 -40.33) rotate(90)" style="fill:#ebebeb"></rect><path d="M156.74,270.2a4.88,4.88,0,0,0-.44-9.73H131.24a4.88,4.88,0,0,0-.45,9.73l-.17,10a23.84,23.84,0,0,0-10.71,19.91c0,8.47,12.1,41.61,11.07,65.77-.19,4.58-4.18,9.55-7.2,12.68a1.85,1.85,0,0,0,1.34,3.14h37.3a1.85,1.85,0,0,0,1.33-3.14c-3-3.13-7-8.1-7.2-12.68-1-24.16,11.07-57.3,11.07-65.77a23.83,23.83,0,0,0-10.7-19.91Z" style="fill:#f0f0f0"></path><path d="M132.25,378.54c3-3.13,7-8.1,7.2-12.68,1-24.16-11.07-57.3-11.07-65.77a23.84,23.84,0,0,1,10.71-19.91l.17-10a4.88,4.88,0,0,1,.45-9.73h-8.47a4.88,4.88,0,0,0-.45,9.73l-.17,10a23.84,23.84,0,0,0-10.71,19.91c0,8.47,12.1,41.61,11.07,65.77-.19,4.58-4.18,9.55-7.2,12.68a1.85,1.85,0,0,0,1.34,3.14h8.47A1.85,1.85,0,0,1,132.25,378.54Z" style="fill:#fafafa"></path><path d="M162.42,296l5.18,3.3q0-1.26-.21-2.49L162.5,293l-10.38,6.82-6.36,13-3.39-9.52-11.73-6.52-4.93-12.18c-.28.31-.54.64-.8,1l4.71,13.27,10.17,6.52,5.72,16.07v17.87l2.19,2.7-8.27,12.55-5.15-2.06-3.44,4.65c.06.9.1,1.79.14,2.68l4.38-5.1,5.28,2.12,9.06-12.37,7.3,9q.12-1.26.27-2.52l-9.41-12.8.78-17.3-1.43-4,6.56-15.65Z" style="fill:#e0e0e0"></path><path d="M128.38,261.41l8.62,5.9,6.26-1,5.56,6.52,8,.05,0-1.81-6.31-.28-6.08-7-6.56,1.07-7.68-4.19A4.83,4.83,0,0,0,128.38,261.41Z" style="fill:#e0e0e0"></path><path d="M86.91,366.28c0,6.76,1.06,11.14,2.84,13.94a7.4,7.4,0,0,0,6.26,3.3h9.79a7.38,7.38,0,0,0,6.26-3.3c1.79-2.8,2.85-7.18,2.85-13.94,0-9.8-4.28-17.65-5.67-23.92-.51-2.26,1.17-9.18,1.17-9.18h-19s1.67,6.92,1.17,9.18C91.18,348.63,86.91,356.48,86.91,366.28Z" style="fill:#e6e6e6"></path><path d="M54.55,326.6c0-8.51,13.35-5,16.71-18.19,1.28-5-9.58-16.33-9.58-16.33H95.53S84.67,303.41,86,308.41c3.36,13.21,16.71,9.68,16.71,18.19,0,9.38-18.83,28.9-19.74,50.88-.08,2,3.54,6,3.54,6H70.75s3.62-4.07,3.54-6C73.38,355.5,54.55,336,54.55,326.6Z" style="fill:#f0f0f0"></path><path d="M64.78,348.72c-2-4.13,2.1-18.2,2.1-18.2H52.21s4.07,14.07,2.1,18.2c-1.38,2.92-4.54,4.79-4.54,8.25v20.77c0,5.38,4.4,5.78,9.78,5.78s9.78-.4,9.78-5.78V357C69.33,353.51,66.17,351.64,64.78,348.72Z" style="fill:#e6e6e6"></path><polygon points="406.17 382.46 404.5 382.46 404.9 270.31 409.24 270.31 406.17 382.46" style="fill:#e0e0e0"></polygon><polygon points="424.54 286.81 391.61 286.81 390.86 293.2 426.43 293.2 424.54 286.81" style="fill:#ebebeb"></polygon><polygon points="410.86 239.94 452.41 382.34 449.83 382.34 404.02 240.34 410.86 239.94" style="fill:#e6e6e6"></polygon><polygon points="397.09 239.94 380.45 382.34 383.03 382.34 404 240.34 397.09 239.94" style="fill:#e6e6e6"></polygon><polygon points="371.18 273.3 445.09 273.3 438.63 199.39 364.71 199.39 371.18 273.3" style="fill:#e0e0e0"></polygon><polygon points="374.39 267.78 448.3 267.78 441.84 193.87 367.93 193.87 374.39 267.78" style="fill:#ebebeb"></polygon><polygon points="381.02 260.51 440.4 260.51 435.21 201.13 375.83 201.13 381.02 260.51" style="fill:#fafafa"></polygon><polygon points="443.97 273.3 448.3 267.78 374.39 267.78 367.93 193.87 363.59 199.39 370.05 273.3 443.97 273.3" style="fill:#e0e0e0"></polygon></g><g id="freepik--Shadow--inject-20"><ellipse id="freepik--path--inject-20" cx="245.18" cy="412.39" rx="193.89" ry="11.32" style="fill:#f5f5f5"></ellipse></g><g id="freepik--Device--inject-20"><path d="M206.94,378.24v2a1.89,1.89,0,0,0,1.89,1.88h72a1.72,1.72,0,0,0,1.73-1.73v-1.93a1.73,1.73,0,0,0-1.73-1.74h-17.9a3.27,3.27,0,0,1-3.23-3.83L266,336.62H225.07l-17.5,38.74A7,7,0,0,0,206.94,378.24Z" style="fill:#263238"></path><path d="M282.54,378.46v1.94a1.72,1.72,0,0,1-1.73,1.73h-72a1.89,1.89,0,0,1-1.89-1.88v-2a7,7,0,0,1,.18-1.58,7.47,7.47,0,0,1,.44-1.31l17.51-38.73H266l-6.28,36.27a2.81,2.81,0,0,0-.05.64,3.28,3.28,0,0,0,2.6,3.13,3,3,0,0,0,.68.07h17.9A1.73,1.73,0,0,1,282.54,378.46Z" style="fill:#fff;opacity:0.2"></path><path d="M205.25,375.36l17.51-38.74h2.31l-17.5,38.74a7,7,0,0,0-.63,2.88v2a1.89,1.89,0,0,0,1.89,1.88h-2.32a1.88,1.88,0,0,1-1.88-1.88v-2A7,7,0,0,1,205.25,375.36Z" style="fill:#263238"></path><polygon points="225.07 336.62 265.96 336.62 264.35 345.88 220.89 345.88 225.07 336.62" style="opacity:0.2"></polygon><path d="M162.44,340.69H336.88a5.76,5.76,0,0,0,5.82-6.38l-11-126a7.1,7.1,0,0,0-6.94-6.38H150.29a5.75,5.75,0,0,0-5.81,6.38l11,126.05A7.11,7.11,0,0,0,162.44,340.69Z" style="fill:#008CBA"></path><path d="M341.5,320.68l1.2,13.63a5.76,5.76,0,0,1-5.82,6.38H162.44a7.11,7.11,0,0,1-6.94-6.38l-1.19-13.63Z" style="fill:#008CBA"></path><path d="M341.5,320.68l1.2,13.63a5.76,5.76,0,0,1-5.82,6.38H162.44a7.11,7.11,0,0,1-6.94-6.38l-1.19-13.63Z" style="fill:#fff;opacity:0.6000000000000001"></path><path d="M160.47,316.83h174.2a3.12,3.12,0,0,0,3.16-3.46l-9.12-104.18a3.85,3.85,0,0,0-3.76-3.46H150.75a3.12,3.12,0,0,0-3.16,3.46l9.12,104.18A3.85,3.85,0,0,0,160.47,316.83Z" style="fill:#008CBA"></path><path d="M160.47,316.83h174.2a3.12,3.12,0,0,0,3.16-3.46l-9.12-104.18a3.85,3.85,0,0,0-3.76-3.46H150.75a3.12,3.12,0,0,0-3.16,3.46l9.12,104.18A3.85,3.85,0,0,0,160.47,316.83Z" style="fill:#fff;opacity:0.8"></path><path d="M146.44,201.88h3.85a5.75,5.75,0,0,0-5.81,6.38l11,126.05a7.11,7.11,0,0,0,6.94,6.38h-3.86a7.09,7.09,0,0,1-6.93-6.38l-11-126A5.75,5.75,0,0,1,146.44,201.88Z" style="fill:#008CBA"></path><path d="M146.44,201.88h3.85a5.75,5.75,0,0,0-5.81,6.38l11,126.05a7.11,7.11,0,0,0,6.94,6.38h-3.86a7.09,7.09,0,0,1-6.93-6.38l-11-126A5.75,5.75,0,0,1,146.44,201.88Z" style="fill:#008CBA;opacity:0.2"></path><g style="opacity:0.30000000000000004"><polygon points="219.38 205.73 226.08 205.73 249.7 316.83 243 316.83 219.38 205.73" style="fill:#fff"></polygon><polygon points="256.47 316.83 232.85 205.73 258.03 205.73 281.64 316.83 256.47 316.83" style="fill:#fff"></polygon></g><g style="opacity:0.2"><path d="M146.44,201.88h3.85a5.75,5.75,0,0,0-5.81,6.38l11,126.05a7.11,7.11,0,0,0,6.94,6.38h-3.86a7.09,7.09,0,0,1-6.93-6.38l-11-126A5.75,5.75,0,0,1,146.44,201.88Z"></path><path d="M146.44,201.88h3.85a5.75,5.75,0,0,0-5.81,6.38l11,126.05a7.11,7.11,0,0,0,6.94,6.38h-3.86a7.09,7.09,0,0,1-6.93-6.38l-11-126A5.75,5.75,0,0,1,146.44,201.88Z" style="opacity:0.2"></path></g><path d="M219.38,378.48v1.84a1.81,1.81,0,0,0,1.82,1.81h59.61a1.72,1.72,0,0,0,1.73-1.73v-1.93a1.72,1.72,0,0,0-1.73-1.73h-17.9a3,3,0,0,1-.68-.08h-41A1.82,1.82,0,0,0,219.38,378.48Z" style="fill:#fff;opacity:0.30000000000000004"></path><path d="M207.12,376.66h55.11a3.26,3.26,0,0,1-2.6-3.13h-51.1Z" style="opacity:0.2"></path></g><g id="freepik--character-2--inject-20"><g id="freepik--freepik--Character--inject-578--inject-20"><polygon points="296.69 396.24 290.17 392.87 280.96 406.52 286.49 411.36 296.69 396.24" style="fill:#ff8b7b"></polygon><path d="M281.25,405.87a.19.19,0,0,0,.15-.15.18.18,0,0,0-.1-.19c-.35-.19-3.43-1.78-4.38-1.26a.61.61,0,0,0-.32.48,1,1,0,0,0,.33.9,2.9,2.9,0,0,0,1.88.48A13.39,13.39,0,0,0,281.25,405.87Zm-3.82-1.37a9.88,9.88,0,0,1,3.21,1.11c-1.72.27-3,.19-3.46-.24a.61.61,0,0,1-.21-.58.24.24,0,0,1,.12-.2.68.68,0,0,1,.34-.06Z" style="fill:#008CBA"></path><path d="M281.34,405.83a.15.15,0,0,0,.08-.16c0-.09-.17-2.18-1.15-3a1.31,1.31,0,0,0-1-.32c-.51.05-.69.3-.69.51-.15.88,1.67,2.56,2.59,3h.08A.18.18,0,0,0,281.34,405.83Zm-2-3.13a1,1,0,0,1,.66.24,4.14,4.14,0,0,1,1,2.39c-.93-.58-2.17-1.89-2.08-2.43,0,0,0-.17.37-.2h.08Z" style="fill:#008CBA"></path><path d="M280.46,405.24c-2,1.71-4.45,3.48-10.53,4.78-1.36.27-1.24,3.68,2,3.69s8.55-.26,10.91-.26c3.83,0,4.9.09,7.93.16h.14a1.24,1.24,0,0,0,1.11-1.37l-1-6.89a.64.64,0,0,0-.64-.53l-8.71,0A2,2,0,0,0,280.46,405.24Z" style="fill:#263238"></path><polygon points="296.69 396.24 291.68 403.68 285.15 400.31 290.17 392.88 296.69 396.24" style="opacity:0.2;isolation:isolate"></polygon><path d="M355.74,396.89c1.1,9.78-3.05,20.41-24,19.94-17.81-.4-18.15-20.66-24.07-30.62-3.17,9.56-13.85,15-13.85,15L287,396.27s3.21-3.61,14.6-24.44c10.34-18.94,28.14,12.5,31.19,22.69Z" style="fill:#008CBA"></path><g style="opacity:0.2"><path d="M355.74,396.89c1.1,9.78-3.05,20.41-24,19.94-17.81-.4-18.15-20.66-24.07-30.62-3.17,9.56-13.85,15-13.85,15L287,396.27s3.21-3.61,14.6-24.44c10.34-18.94,28.14,12.5,31.19,22.69Z"></path></g><polygon points="297.41 399.94 286.21 393.73 285.06 397.29 294.85 403.16 297.41 399.94" style="fill:#263238"></polygon><path d="M345.39,337.26c.41,3.8.25,6-5.21,6.48,0,0-7.63,6.87-1.95,20.06a106.65,106.65,0,0,0,16.69-18c-2.87-3.63-1-10.4.61-15Z" style="fill:#ff8b7b"></path><path d="M336.41,345.13a7.21,7.21,0,0,1,4.38-2.7c3-.61,14,.79,15,1.73a6,6,0,0,1,1.94,3.42Z" style="fill:#008CBA"></path><path d="M368.21,357.81c.66,2.23,1.19,4.37,1.69,6.56s.94,4.38,1.35,6.58.71,4.44,1,6.67.5,4.5.65,6.78v.74l-.94,6.65-1,6.66c-.34,2.22-.66,4.45-1.05,6.67s-.75,4.44-1.18,6.66l-4.07-.34c0-2.24,0-4.54,0-6.78s.07-4.54.15-6.77.16-4.53.28-6.77.24-4.51.41-6.78v.75c-.28-2.09-.6-4.19-1-6.28s-.8-4.19-1.26-6.28-.95-4.19-1.43-6.27-1-4.2-1.53-6.2Z" style="fill:#ff8b7b"></path><path d="M370.32,413.37l8.28,1.32-.27-1.19a4.14,4.14,0,0,0-2.06-2.51l-1.63-.94a6,6,0,0,0-2.81-.76l-4.43-.08-2.47.36C362.12,413.07,370.32,413.37,370.32,413.37Z" style="fill:#ff8b7b"></path><path d="M356.14,355.3c-1.57,4.11,3.47,13.42,3.47,13.42l12-6.62s-3.32-12-6.49-13.45C361.48,347,357.73,351,356.14,355.3Z" style="fill:#263238"></path><path d="M356.14,355.3c-1.57,4.11,3.47,13.42,3.47,13.42l12-6.62s-3.32-12-6.49-13.45C361.48,347,357.73,351,356.14,355.3Z" style="fill:#fff;opacity:0.1"></path><path d="M356.4,360.83a41.85,41.85,0,0,0,3.2,7.85l5.92-3.24a20.09,20.09,0,0,0-1.56-3.11C361.73,359.07,358.8,359.38,356.4,360.83Z" style="opacity:0.2;isolation:isolate"></path><path d="M340.17,343.77a104.55,104.55,0,0,1,14.73,2.05,87.31,87.31,0,0,1,9,2.25l.27.09a4.47,4.47,0,0,1,2.6,5.75c-8.56,22.79-9.62,30.74-10.85,43.25l-32.41-4.54c-.12-5.29,2.57-10.46,2.57-18.36,0-20.18-3.44-20-2.57-23.84C323.42,344.93,336.18,343.57,340.17,343.77Z" style="fill:#263238"></path><path d="M341.08,317.57c-.4-.13-.89.26-1.09.88s0,1.23.39,1.36.89-.24,1.09-.89S341.49,317.7,341.08,317.57Z" style="fill:#263238"></path><path d="M339.9,316.76l1.35.9C340.3,318.16,339.9,316.76,339.9,316.76Z" style="fill:#263238"></path><path d="M339.45,324.74a2.83,2.83,0,0,1-2.08-1.12,17,17,0,0,0,3.46-3.24Z" style="fill:#a02724"></path><path d="M341.91,313.94a3,3,0,0,1,2,1.86.14.14,0,0,0,0,.07.38.38,0,1,0,.71-.27,3.79,3.79,0,0,0-2.54-2.4.4.4,0,0,0-.48.26.41.41,0,0,0,.09.37A.34.34,0,0,0,341.91,313.94Z" style="fill:#263238"></path><path d="M363.24,323.36c-2.89,7.46-3.94,10.68-9,13.37a11.26,11.26,0,0,1-8.72.91,10,10,0,0,1-3.81-2.2,9.69,9.69,0,0,1-3.07-8c.53-7.37,5.15-18.33,13.56-19a10.91,10.91,0,0,1,11.06,14.92Z" style="fill:#ff8b7b"></path><path d="M351.11,337a2.37,2.37,0,0,0,2.92.68c3.54-1.73,11.51-6.18,13.84-12.14,3-7.74,1-13.6-4.54-16.55s-15-3.67-18.93,0-1.14,5.18,2.54,13.56C344.59,327.46,348.89,334.09,351.11,337Z" style="fill:#263238"></path><path d="M347.61,319.79c-2-.07-3.39,2.39-3.71,4.11-.36,1.91.8,3.57,2.71,2.82a5.86,5.86,0,0,0,3.2-3.12A2.62,2.62,0,0,0,347.61,319.79Z" style="fill:#ff8b7b"></path><polygon points="273.58 394.54 266.48 390.28 254.95 404.56 260.82 410.35 273.58 394.54" style="fill:#ff8b7b"></polygon><path d="M255.72,403.35a.18.18,0,0,0,.21-.06.17.17,0,0,0,0-.21c-.19-.36-1.92-3.53-3-3.64a.68.68,0,0,0-.56.24,1,1,0,0,0-.23,1,3.06,3.06,0,0,0,1.33,1.51A15.07,15.07,0,0,0,255.72,403.35Zm-.4-.57c-1.64-.76-2.7-1.56-2.85-2.21a.63.63,0,0,1,.16-.65.23.23,0,0,1,.22-.09.61.61,0,0,1,.33.14A10.32,10.32,0,0,1,255.32,402.78Z" style="fill:#008CBA"></path><path d="M255.78,403.35a.21.21,0,0,0,.17-.1c0-.07,1.1-1.94.74-3.24a1.38,1.38,0,0,0-.69-.86c-.47-.26-.74-.12-.9,0-.63.67,0,3.18.52,4.08l0,.06A.23.23,0,0,0,255.78,403.35Zm.14-3.81a1,1,0,0,1,.4.58,4.42,4.42,0,0,1-.54,2.64c-.48-1.05-.78-2.9-.4-3.31,0,0,.13-.14.44,0l.1.06Z" style="fill:#008CBA"></path><path d="M254.72,402.31c-2.79.29-5.88.45-11.87-2-1.33-.53-3.21,2.47-.41,4.37s7.55,4.73,9.58,6.11c3.29,2.24,4.17,2.92,6.76,4.74l.12.07a1.29,1.29,0,0,0,1.75-.53l3.18-6.48a.65.65,0,0,0-.23-.82l-7.49-5.09A2.16,2.16,0,0,0,254.72,402.31Z" style="fill:#263238"></path><path d="M254.72,402.31c-2.79.29-5.88.45-11.87-2-1.33-.53-3.21,2.47-.41,4.37s7.55,4.73,9.58,6.11c3.29,2.24,4.17,2.92,6.76,4.74l.12.07a1.29,1.29,0,0,0,1.75-.53l3.18-6.48a.65.65,0,0,0-.23-.82l-7.49-5.09A2.16,2.16,0,0,0,254.72,402.31Z" style="opacity:0.2"></path><polygon points="273.58 394.54 267.31 402.31 260.2 398.06 266.48 390.28 273.58 394.54" style="opacity:0.2;isolation:isolate"></polygon><path d="M356,396.74c2.2,10-.43,25-25.42,20.93-22.43-3.62-32.07-27.94-40.8-38.48-3.63,9.47-19.18,20.23-19.18,20.23l-9.6-5.51s7.61-8.12,18.57-26.42c11.51-19.19,39.1,14.57,44,25.13Z" style="fill:#008CBA"></path><polygon points="273.75 398.17 261.48 390.76 260.04 394.69 270.75 401.69 273.75 398.17" style="fill:#263238"></polygon><path d="M356.17,395l-32.84-4.59c-.32,0-.6.09-.6.3l-.12,3c0,.19.21.36.5.41l33.38,4.66c.37.05.68-.14.59-.39l-.41-3A.6.6,0,0,0,356.17,395Z" style="fill:#fff"></path><path d="M351.33,398.11l.11-3.83c0-.11.15-.17.33-.17l.88.13c.17,0,.31.13.31.25l-.12,3.83c0,.11-.15.16-.32.16l-.88-.13A.29.29,0,0,1,351.33,398.11Z" style="fill:#263238"></path><path d="M325.24,394.46l.12-3.82c0-.12.15-.16.32-.16l.88.12c.18,0,.31.14.31.25l-.11,3.83c0,.11-.15.15-.33.15l-.88-.11C325.38,394.69,325.24,394.58,325.24,394.46Z" style="fill:#263238"></path><path d="M338.23,396.28l.12-3.82c0-.12.15-.17.32-.17l.88.13c.17,0,.31.13.31.24l-.11,3.83c0,.11-.15.16-.33.16l-.88-.12C338.37,396.51,338.23,396.41,338.23,396.28Z" style="fill:#263238"></path></g><path d="M378.65,316.35c1,3.54.4,7.27.24,10.93a25,25,0,0,0,1.67,11.3c1.55,3.52,4.54,6.56,8.29,7.41s8.14-.93,9.62-4.48a8.24,8.24,0,0,1-5,5.24c-2.35.85-6.44,1.65-8.54.28,1.06,2.85,6.75,4,10.41,3.58-3.24,2.49-7.89,6.76-14.78,2.88a10.66,10.66,0,0,1-5.21-10.32,11,11,0,0,0-.79,7.07,14.22,14.22,0,0,1-6.39-13.85c.39-2.59,1.5-5,2.27-7.51s1.22-5.26.27-7.71a15.66,15.66,0,0,0-2.62-4,11.79,11.79,0,0,1-2.39-4.08,4.35,4.35,0,0,1,1.05-4.4c1.88-1.63,4.76.52,6.61,1.28A9.38,9.38,0,0,1,378.65,316.35Z" style="fill:#263238"></path><path d="M336.13,357.75c.66,2.22,2,11.62,2.4,13.82s.71,4.43,1,6.67.5,4.5.65,6.77v.75l-.94,6.64-1,6.67c-.34,2.22-.53,2.14-.92,4.35s-.79,4.61-1.22,6.83l-5.68.87c0-2.24.46-5.92.49-8.16s-.07-2.23,0-4.46.16-4.52.28-6.76.24-4.52.42-6.78v.74c-.29-2.09-.6-4.18-1-6.27s-.8-4.2-1.26-6.29-.95-4.18-1.42-6.26-1-4.2-1.53-6.21Z" style="fill:#ff8b7b"></path><path d="M330.45,410.52l-1.29,5.72a2.26,2.26,0,0,0,2.09,1.81h8.94c2,.11,4.28-1.62.53-4.68l-4.59-3.72S334.17,407.68,330.45,410.52Z" style="fill:#ff8b7b"></path><path d="M327.07,345.87c-4.81,2.34-5.67,12-2.86,17,9.71-2.74,13.49-.89,13.4-.62a23.49,23.49,0,0,0-.18-7.05,12.21,12.21,0,0,0-3.8-7.71C331.4,345.62,329.63,344.45,327.07,345.87Z" style="fill:#263238"></path><path d="M327.07,345.87c-4.81,2.34-5.67,12-2.86,17,9.71-2.74,13.49-.89,13.4-.62a23.49,23.49,0,0,0-.18-7.05,12.21,12.21,0,0,0-3.8-7.71C331.4,345.62,329.63,344.45,327.07,345.87Z" style="fill:#fff;opacity:0.1"></path><path d="M345.5,337.64a10,10,0,0,1-3.81-2.2s0,0,0-.06a4.29,4.29,0,0,0,2.68.4,1.07,1.07,0,0,1,.77,0,1,1,0,0,1,.3.77C345.45,336.93,345.47,337.29,345.5,337.64Z" style="opacity:0.2;isolation:isolate"></path></g></svg>